HIERARCHY
ROOT Hips
{
	OFFSET 0.00000 0.00000 0.00000
	CHANNELS 6 Xposition Yposition Zposition Zrotation Yrotation Xrotation 
	JOINT LHipJoint
	{
		OFFSET 0 0 0
		CHANNELS 3 Zrotation Yrotation Xrotation
		JOINT LeftUpLeg
		{
			OFFSET 1.37590 -1.78394 0.89329
			CHANNELS 3 Zrotation Yrotation Xrotation
			JOINT LeftLeg
			{
				OFFSET 2.47928 -6.81178 0.00000
				CHANNELS 3 Zrotation Yrotation Xrotation
				JOINT LeftFoot
				{
					OFFSET 2.63345 -7.23535 0.00000
					CHANNELS 3 Zrotation Yrotation Xrotation
					JOINT LeftToeBase
					{
						OFFSET 0.23938 -0.65768 2.27012
						CHANNELS 3 Zrotation Yrotation Xrotation
						End Site
						{
							OFFSET 0.00000 -0.00000 1.18363
						}
					}
				}
			}
		}
	}
	JOINT RHipJoint
	{
		OFFSET 0 0 0
		CHANNELS 3 Zrotation Yrotation Xrotation
		JOINT RightUpLeg
		{
			OFFSET -1.33617 -1.78394 0.89329
			CHANNELS 3 Zrotation Yrotation Xrotation
			JOINT RightLeg
			{
				OFFSET -2.56922 -7.05888 0.00000
				CHANNELS 3 Zrotation Yrotation Xrotation
				JOINT RightFoot
				{
					OFFSET -2.56568 -7.04915 0.00000
					CHANNELS 3 Zrotation Yrotation Xrotation
					JOINT RightToeBase
					{
						OFFSET -0.27533 -0.75646 2.18105
						CHANNELS 3 Zrotation Yrotation Xrotation
						End Site
						{
							OFFSET -0.00000 -0.00000 1.15233
						}
					}
				}
			}
		}
	}
	JOINT LowerBack
	{
		OFFSET 0 0 0
		CHANNELS 3 Zrotation Yrotation Xrotation
		JOINT Spine
		{
			OFFSET 0.06190 2.15152 -0.00935
			CHANNELS 3 Zrotation Yrotation Xrotation
			JOINT Spine1
			{
				OFFSET 0.06334 2.15332 0.00872
				CHANNELS 3 Zrotation Yrotation Xrotation
				JOINT Neck
				{
					OFFSET 0 0 0
					CHANNELS 3 Zrotation Yrotation Xrotation
					JOINT Neck1
					{
						OFFSET -0.04202 1.66908 0.23524
						CHANNELS 3 Zrotation Yrotation Xrotation
						JOINT Head
						{
							OFFSET 0.07510 1.69357 -0.24440
							CHANNELS 3 Zrotation Yrotation Xrotation
							End Site
							{
								OFFSET 0.02556 1.71719 -0.11000
							}
						}
					}
				}
				JOINT LeftShoulder
				{
					OFFSET 0 0 0
					CHANNELS 3 Zrotation Yrotation Xrotation
					JOINT LeftArm
					{
						OFFSET 3.67168 1.26306 -0.41342
						CHANNELS 3 Zrotation Yrotation Xrotation
						JOINT LeftForeArm
						{
							OFFSET 4.68510 -0.00000 -0.00000
							CHANNELS 3 Zrotation Yrotation Xrotation
							JOINT LeftHand
							{
								OFFSET 3.39626 -0.00000 -0.00000
								CHANNELS 3 Zrotation Yrotation Xrotation
								JOINT LeftFingerBase
								{
									OFFSET 0 0 0
									CHANNELS 3 Zrotation Yrotation Xrotation
									JOINT LeftHandIndex1
									{
										OFFSET 0.48608 -0.00000 -0.00000
										CHANNELS 3 Zrotation Yrotation Xrotation
										End Site
										{
											OFFSET 0.39189 -0.00000 -0.00000
										}
									}
								}
								JOINT LThumb
								{
									OFFSET 0 0 0
									CHANNELS 3 Zrotation Yrotation Xrotation
									End Site
									{
										OFFSET 0.39787 -0.00000 0.39787
									}
								}
							}
						}
					}
				}
				JOINT RightShoulder
				{
					OFFSET 0 0 0
					CHANNELS 3 Zrotation Yrotation Xrotation
					JOINT RightArm
					{
						OFFSET -3.04136 1.42992 -0.76390
						CHANNELS 3 Zrotation Yrotation Xrotation
						JOINT RightForeArm
						{
							OFFSET -5.55576 -0.00000 -0.00000
							CHANNELS 3 Zrotation Yrotation Xrotation
							JOINT RightHand
							{
								OFFSET -3.32774 -0.00000 -0.00000
								CHANNELS 3 Zrotation Yrotation Xrotation
								JOINT RightFingerBase
								{
									OFFSET 0 0 0
									CHANNELS 3 Zrotation Yrotation Xrotation
									JOINT RightHandIndex1
									{
										OFFSET -0.50763 -0.00000 -0.00000
										CHANNELS 3 Zrotation Yrotation Xrotation
										End Site
										{
											OFFSET -0.40926 -0.00000 -0.00000
										}
									}
								}
								JOINT RThumb
								{
									OFFSET 0 0 0
									CHANNELS 3 Zrotation Yrotation Xrotation
									End Site
									{
										OFFSET -0.41551 -0.00000 0.41551
									}
								}
							}
						}
					}
				}
			}
		}
	}
}
MOTION
Frames: 12
Frame Time: 0.047619
0.00 0.00 0.00 -97.0764 -85.7065 105.6830 0.0000 0.0000 0.0000 -10.6543 -7.8721 -5.6795 0.3824 3.9712 10.9956 0.0000 0.0000 0.0000 0.0000 0.0000 0.0000 0.0000 0.0000 0.0000 24.6853 6.8994 -8.3283 -0.7165 -5.4091 15.0793 -0.0000 -0.0000 0.0000 -0.0000 -0.0000 0.0000 0.0000 0.0000 0.0000 0.0000 0.0000 0.0000 0.0000 0.0000 0.0000 0.0000 0.0000 0.0000 0.0000 0.0000 0.0000 0.0000 0.0000 0.0000 0.0000 0.0000 0.0000 -0.0000 0.0000 -0.0000 -0.0000 0.0000 -0.0000 -0.0000 -0.0000 0.0000 -0.0000 0.0000 0.0000 -0.0000 0.0000 0.0000 0.0000 0.0000 0.0000 0.0000 0.0000 0.0000 0.0000 -0.0000 -0.0000 0.0000 -0.0000 -0.0000 0.0000 0.0000 0.0000 0.0000 0.0000 0.0000 0.0000 0.0000 0.0000 0.0000 -0.0000 0.0000
0.00 0.00 0.00 -106.9570 -85.8019 116.2570 0.0000 0.0000 0.0000 -10.6830 -7.7463 -6.5509 0.4015 4.0684 11.2690 0.0000 0.0000 0.0000 0.0000 0.0000 0.0000 0.0000 0.0000 0.0000 24.2890 7.2841 -10.6767 -0.9908 -6.3353 17.7605 -0.0000 -0.0000 0.0000 -0.0000 -0.0000 0.0000 0.0000 0.0000 0.0000 0.0000 0.0000 0.0000 0.0000 0.0000 0.0000 0.0000 0.0000 0.0000 0.0000 0.0000 0.0000 0.0000 0.0000 0.0000 0.0000 0.0000 0.0000 -0.0000 0.0000 -0.0000 -0.0000 0.0000 -0.0000 -0.0000 -0.0000 0.0000 -0.0000 0.0000 0.0000 -0.0000 0.0000 0.0000 0.0000 0.0000 0.0000 0.0000 0.0000 0.0000 0.0000 -0.0000 -0.0000 0.0000 -0.0000 -0.0000 0.0000 0.0000 0.0000 0.0000 0.0000 0.0000 0.0000 0.0000 0.0000 0.0000 -0.0000 0.0000
0.00 0.00 0.00 -99.6278 -84.4291 109.4960 0.0000 0.0000 0.0000 -7.3283 -8.4951 -15.1056 2.1395 9.1509 26.2684 0.4727 4.3360 -15.3044 0.3374 -3.7325 -10.3254 0.0000 0.0000 0.0000 27.5274 6.5236 -10.9590 -1.1980 -6.9449 19.5523 -0.5237 -6.7331 -17.7683 -0.2492 -3.2123 8.8703 2.9994 -0.1208 -2.7518 2.9465 -0.2987 -1.6067 1.3329 -0.1840 -0.1041 -5.7907 -1.5572 -17.9548 6.5058 -1.8218 14.2364 2.8837 -0.5788 7.4371 0.0000 -0.0000 0.0000 -91.0840 1.3095 0.9366 13.4928 -22.0050 -2.6351 -0.0000 -0.0000 28.3754 11.3302 20.1574 3.9498 -7.1250 0.0000 -0.0000 -16.8680 49.7395 -2.0222 0.0000 -0.0000 0.0000 85.3717 0.1140 8.2484 -12.6077 20.7097 -2.3127 0.0000 0.0000 15.5571 -14.5340 -24.8166 6.2100 7.1250 -0.0000 -0.0000 15.9345 -54.7990 -3.9092
0.00 0.00 0.00 -96.9901 -82.8806 106.9760 0.0000 0.0000 0.0000 -4.4220 -9.7799 -27.1248 5.3567 13.7745 42.3417 0.5528 3.7682 -15.9253 0.4732 -4.4119 -12.2386 0.0000 0.0000 0.0000 30.4436 5.6114 -9.1994 -1.1390 -6.7776 19.0582 -0.7510 -5.5918 -19.3391 -0.1491 -2.4883 6.8571 4.4020 0.8823 -1.4842 3.1392 1.0690 -1.2496 0.7674 0.4870 -0.4289 -5.0103 -0.8323 -18.3099 6.3190 -0.8932 12.2062 2.7748 -0.1054 6.7704 0.0000 -0.0000 0.0000 -90.9386 2.2220 4.2194 14.9211 -24.0360 -3.1937 -0.0000 -0.0000 25.8840 11.3328 20.2126 3.9611 -7.1250 0.0000 -0.0000 -16.8889 49.7932 -2.0476 0.0000 -0.0000 0.0000 85.7187 -0.1969 6.0110 -11.4053 18.9068 -1.9052 0.0000 0.0000 17.4040 -14.3016 -25.1788 6.1899 7.1250 -0.0000 -0.0000 16.3599 -55.1049 -4.1409
0.00 0.00 0.00 -99.6325 -82.7338 111.9060 0.0000 0.0000 0.0000 -4.7775 -15.3770 -35.6816 1.5909 7.9562 22.5812 -0.1913 7.8045 -4.0181 0.0286 -1.0923 -3.0027 0.0000 0.0000 0.0000 28.4748 0.5180 -5.2160 -3.6125 -11.6260 34.4215 -0.0757 -4.6072 -8.8043 -0.1415 2.4241 -6.6791 2.5270 4.1392 -1.8383 0.1478 5.4746 -1.3875 -1.1557 2.7186 -0.1748 -5.6547 -0.2412 -18.9900 7.9732 0.0903 6.1291 3.4443 0.4433 4.8943 0.0000 -0.0000 0.0000 -91.4030 2.2858 18.4711 29.7254 -40.6568 -11.2302 -0.0000 -0.0000 13.2603 14.8906 26.4664 6.7584 -7.1250 0.0000 -0.0000 -16.4799 56.4664 -4.7226 0.0000 -0.0000 0.0000 86.4510 4.2193 44.3188 -25.3912 36.6012 -8.5221 0.0000 0.0000 10.9367 -17.7556 -27.3777 8.3766 7.1250 -0.0000 -0.0000 14.0285 -57.9611 -4.5080
0.00 0.00 0.00 -71.0848 -84.2408 81.6599 0.0000 0.0000 0.0000 -9.7662 -15.9957 -29.6298 2.1433 9.1584 26.2921 0.0282 3.3844 -6.0257 0.0000 0.0028 0.0076 0.0000 0.0000 0.0000 24.8165 0.8907 -15.4446 -7.2904 -15.5716 49.9643 0.2386 -8.6702 -4.1541 -0.0183 0.8743 -2.4031 -0.2003 3.9721 -0.6006 -0.8323 5.2902 -0.9983 -0.7351 2.6425 -0.6264 -7.0495 -0.9773 -17.9898 9.6310 -0.7240 4.7149 4.1042 0.0841 4.3775 -0.0000 0.0000 0.0000 -89.4293 -8.2107 30.6800 38.1707 -46.9480 -17.0903 -0.0000 -0.0000 12.3975 16.0546 25.6123 7.0912 -7.1250 0.0000 -0.0000 -14.8135 55.8730 -4.0147 -0.0000 0.0000 0.0000 86.3026 13.4003 57.8515 -34.9904 44.8053 -14.8066 0.0000 0.0000 13.1307 -21.5148 -24.9764 9.4504 7.1250 -0.0000 -0.0000 8.8237 -56.3588 -2.4712
0.00 0.00 0.00 -33.8796 -77.5462 41.5801 0.0000 0.0000 0.0000 -7.7802 -13.2723 -29.8134 4.9825 13.3641 40.7472 0.0353 -7.1888 -5.8198 0.1781 -2.7186 -7.4964 0.0000 0.0000 0.0000 24.1689 4.5326 -23.2587 -6.4066 -14.8111 46.5924 -0.4303 -3.7881 -14.3645 -0.0183 0.8733 -2.4003 -1.3487 3.8504 2.8332 -1.2018 5.0509 -0.7237 -0.7240 2.5275 -2.3351 -10.8480 -2.8882 -13.9800 12.6591 -2.8698 1.8433 5.4931 -1.0096 3.1785 -0.0000 0.0000 0.0000 -86.3114 -37.1713 43.3541 52.3756 -53.9098 -28.0828 -0.0000 -0.0000 6.8672 18.0504 27.9139 8.6745 -7.1250 0.0000 -0.0000 -14.0326 58.5531 -4.7099 -0.0000 0.0000 0.0000 87.3602 41.3155 69.8389 -52.0561 53.7918 -27.8248 0.0000 0.0000 22.2666 -33.3629 -23.9346 14.9561 7.1250 -0.0000 -0.0000 -4.6431 -57.9076 1.4689
0.00 0.00 0.00 -27.1991 -62.0102 33.9331 0.0000 0.0000 0.0000 7.2490 -16.4988 -40.8190 4.1941 12.4143 37.2139 0.0418 -5.5514 -5.0395 1.1711 -6.8691 -19.3282 0.0000 0.0000 0.0000 34.7035 0.8941 -11.4663 -2.7272 -10.2398 29.7567 -1.0450 -5.6701 -22.1482 -0.2003 2.8820 -7.9505 -0.3507 4.4446 3.7222 -1.9056 5.8387 -1.5320 -2.1501 2.8889 -3.4945 -15.6874 -6.1571 -9.4698 17.2039 -7.1583 -0.5965 7.4930 -3.2052 2.6384 -0.0000 0.0000 0.0000 -104.0498 -66.1112 60.6287 49.9430 -52.9725 -26.1286 -0.0000 0.0000 -7.6473 23.0401 37.2605 14.4397 -7.1250 0.0000 -0.0000 -16.1426 68.9300 -9.3489 -0.0000 0.0000 0.0000 91.5509 69.5722 68.3026 -57.1066 55.4883 -31.9450 0.0000 0.0000 34.8318 -45.1330 -28.8481 25.8610 7.1250 -0.0000 -0.0000 -20.8314 -66.8576 11.1692
0.00 0.00 0.00 -24.0148 -57.3556 31.4470 0.0000 0.0000 0.0000 8.4584 -17.8297 -39.5967 1.4461 7.6020 21.5117 0.0368 -3.3936 -3.8814 1.0753 -6.5917 -18.5112 0.0000 0.0000 0.0000 37.4560 -3.0872 -6.7971 -2.7261 -10.2379 29.7506 -0.5900 -7.9242 -19.5041 -0.5136 4.5935 -12.7526 -0.7304 5.7093 1.1838 -3.2591 7.5133 -1.5915 -3.1368 3.7321 -1.9516 -17.8668 -7.9816 -8.4669 19.2538 -9.6436 -0.8908 8.3290 -4.4448 3.0451 -0.0000 -0.0000 0.0000 -103.0984 -59.4680 56.2106 59.2029 -56.0938 -33.6787 -0.0000 0.0000 -25.6539 19.1288 44.7762 13.7282 -7.1250 0.0000 -0.0000 -34.2937 74.0373 -24.2289 -0.0000 -0.0000 0.0000 101.0098 65.2203 79.8836 -60.0633 56.3268 -34.3937 0.0000 0.0000 33.9215 -44.6799 -29.3734 25.8756 7.1250 -0.0000 -0.0000 -20.1659 -67.3199 11.0116
0.00 0.00 0.00 -17.3566 -55.0000 24.7767 0.0000 0.0000 0.0000 1.4241 -19.3354 -33.6732 1.3408 7.3316 20.7014 -0.2291 -8.4804 2.3553 0.3829 -3.9740 -11.0034 0.0000 0.0000 0.0000 33.4070 -7.0093 -11.9100 -5.8980 -14.3288 44.5711 0.7799 -15.4431 -6.8214 -0.0747 1.7634 -4.8524 -2.5694 7.1502 -0.6730 -3.9624 9.5333 0.1556 -2.5034 4.7477 0.7941 -18.9911 -10.4478 -8.8848 20.6747 -12.8772 -1.4373 8.5799 -6.0007 3.7579 -0.0000 0.0000 0.0000 -90.3599 -31.0480 40.7592 72.4566 -58.8045 -44.8679 -0.0000 0.0000 -44.5250 11.5352 54.3268 9.4137 -7.1250 0.0000 -0.0000 -72.1276 75.8846 -57.8028 -0.0000 0.0000 0.0000 102.0650 43.4234 94.2529 -55.2664 54.9106 -30.4338 0.0000 0.0000 22.6279 -37.5309 -28.2817 20.0000 7.1250 -0.0000 -0.0000 -9.1521 -63.9112 4.2123
0.00 0.00 0.00 -7.3209 -54.6822 16.5774 0.0000 0.0000 0.0000 -9.3726 -17.8708 -18.4592 1.3613 7.3850 20.8611 -0.3700 -12.7558 -2.7293 0.0005 -0.1474 -0.4050 0.0000 0.0000 0.0000 23.4397 -5.2864 -38.0311 -6.3179 -14.7295 46.2448 1.2037 -19.8517 -13.8093 -0.1353 -2.3707 6.5314 -5.1046 7.0943 1.4930 -3.3407 9.3956 2.3444 -0.6735 4.6146 1.3404 -19.0207 -12.5085 -10.2563 22.9047 -15.4806 -2.8427 8.8749 -7.1967 4.3335 -0.0000 -0.0000 0.0000 -87.2106 2.1616 33.8998 51.5260 -53.5927 -27.3976 -0.0000 0.0000 -28.3066 3.3441 49.7001 2.5516 -7.1250 0.0000 -0.0000 -61.5015 71.2728 -43.0714 -0.0000 -0.0000 0.0000 73.2093 35.8261 105.2585 -62.8066 57.0126 -36.6860 0.0000 0.0000 26.3125 -34.4890 -12.7719 8.6358 7.1250 -0.0000 -0.0000 -6.7464 -45.2489 0.0416
0.00 0.00 0.00 -4.8759 -55.2630 15.0328 0.0000 0.0000 0.0000 -11.2855 -15.7886 -13.8146 1.0879 6.6288 18.6202 -0.2708 -12.9731 -5.0461 0.0029 -0.3488 -0.9584 0.0000 0.0000 0.0000 20.7954 -3.4251 -40.2509 -3.1374 -10.9143 31.9912 1.0430 -18.7937 -13.8145 -0.0893 -1.9276 5.3056 -4.7849 6.4817 1.7039 -3.5369 8.5492 1.8789 -1.0839 4.2154 0.8360 -18.6641 -12.4616 -10.6416 22.8364 -15.4914 -2.1788 8.7675 -7.1653 4.5586 0.0000 -0.0000 0.0000 -84.4101 4.0404 32.0462 49.3932 -52.7478 -25.6904 -0.0000 0.0000 -23.6265 4.8335 48.0083 3.5963 -7.1250 0.0000 -0.0000 -56.0216 70.9615 -38.1941 0.0000 -0.0000 0.0000 52.6476 42.7458 83.7390 -79.3065 59.5635 -50.7528 0.0000 0.0000 33.9629 -45.6697 -13.3569 13.3050 7.1250 -0.0000 -0.0000 -17.8821 -47.9104 1.3239
